<svg width="20" height="20" viewBox="0 0 20 20" fill="none" xmlns="http://www.w3.org/2000/svg">
<path fill-rule="evenodd" clip-rule="evenodd" d="M11.6667 6.22507V5.41663C11.6667 4.22747 10.9108 3.27004 9.93834 2.65118C8.95596 2.02603 7.6497 1.66663 6.25004 1.66663C4.85038 1.66663 3.54412 2.02603 2.56174 2.65118C1.58924 3.27004 0.833374 4.22747 0.833374 5.41663V14.5833C0.833374 15.7724 1.58924 16.7299 2.56174 17.3487C3.54412 17.9739 4.85038 18.3333 6.25004 18.3333C7.6497 18.3333 8.95596 17.9739 9.93834 17.3487C10.3814 17.0668 10.7794 16.7146 11.0815 16.3023C11.3223 16.7992 11.7174 17.2136 12.1742 17.5245C12.9329 18.0408 13.9345 18.3333 15 18.3333C16.0656 18.3333 17.0672 18.0408 17.8259 17.5245C18.5803 17.0111 19.1667 16.2152 19.1667 15.2314V8.10181C19.1667 7.11806 18.5803 6.32219 17.8259 5.8088C17.0672 5.29245 16.0656 4.99996 15 4.99996C13.9345 4.99996 12.9329 5.29245 12.1742 5.8088C11.9935 5.93178 11.8224 6.07097 11.6667 6.22507ZM2.50004 5.41663C2.50004 4.99495 2.77019 4.49405 3.45653 4.05728C4.13299 3.62681 5.1184 3.33329 6.25004 3.33329C7.38168 3.33329 8.36709 3.62681 9.04355 4.05728C9.72989 4.49405 10 4.99495 10 5.41663C10 5.8383 9.72989 6.3392 9.04355 6.77597C8.36709 7.20644 7.38168 7.49996 6.25004 7.49996C5.1184 7.49996 4.13299 7.20644 3.45653 6.77597C2.77019 6.3392 2.50004 5.8383 2.50004 5.41663ZM9.93834 8.18207C9.95901 8.16892 9.97958 8.15562 10 8.14216V8.74996C10 9.17164 9.72989 9.67254 9.04355 10.1093C8.36709 10.5398 7.38168 10.8333 6.25004 10.8333C5.1184 10.8333 4.13299 10.5398 3.45653 10.1093C2.77019 9.67254 2.50004 9.17164 2.50004 8.74996V8.14216C2.52051 8.15562 2.54107 8.16892 2.56174 8.18207C3.54412 8.80722 4.85038 9.16663 6.25004 9.16663C7.6497 9.16663 8.95596 8.80722 9.93834 8.18207ZM9.93834 11.5154C9.95901 11.5023 9.97958 11.489 10 11.4755V12.0833C10 12.505 9.72989 13.0059 9.04355 13.4426C8.36709 13.8731 7.38168 14.1666 6.25004 14.1666C5.1184 14.1666 4.13299 13.8731 3.45653 13.4426C2.77019 13.0059 2.50004 12.505 2.50004 12.0833V11.4755C2.52051 11.489 2.54107 11.5023 2.56174 11.5154C3.54412 12.1406 4.85038 12.5 6.25004 12.5C7.6497 12.5 8.95596 12.1406 9.93834 11.5154ZM9.93834 14.8487L9.97054 14.8281C9.88401 15.1907 9.60112 15.5878 9.04355 15.9426C8.36709 16.3731 7.38168 16.6666 6.25004 16.6666C5.1184 16.6666 4.13299 16.3731 3.45653 15.9426C2.89896 15.5878 2.61607 15.1907 2.52954 14.8281L2.56174 14.8487C3.54412 15.4739 4.85038 15.8333 6.25004 15.8333C7.6497 15.8333 8.95596 15.4739 9.93834 14.8487ZM12.5 8.10181C12.5 7.8327 12.6598 7.4943 13.1119 7.18665C13.5596 6.88196 14.2246 6.66663 15 6.66663C15.7754 6.66663 16.4405 6.88196 16.8882 7.18665C17.3403 7.4943 17.5 7.8327 17.5 8.10181C17.5 8.37093 17.3403 8.70932 16.8882 9.01697C16.4405 9.32166 15.7754 9.537 15 9.537C14.2246 9.537 13.5596 9.32166 13.1119 9.01697C12.6598 8.70932 12.5 8.37093 12.5 8.10181ZM15 11.2037C15.9193 11.2037 16.7909 10.986 17.5 10.5947V10.6944C17.5 10.9635 17.3403 11.3019 16.8882 11.6096C16.4405 11.9143 15.7754 12.1296 15 12.1296C14.2246 12.1296 13.5596 11.9143 13.1119 11.6096C12.6598 11.3019 12.5 10.9635 12.5 10.6944V10.5947C13.2092 10.986 14.0808 11.2037 15 11.2037ZM15 13.7963C15.9193 13.7963 16.7909 13.5786 17.5 13.1873V13.287C17.5 13.5561 17.3403 13.8945 16.8882 14.2022C16.4405 14.5068 15.7754 14.7222 15 14.7222C14.2246 14.7222 13.5596 14.5068 13.1119 14.2022C12.6598 13.8945 12.5 13.5561 12.5 13.287V13.1873C13.2092 13.5786 14.0808 13.7963 15 13.7963ZM15 16.3888C15.7592 16.3888 16.486 16.2404 17.1155 15.9682C17.0498 16.0283 16.9743 16.088 16.8882 16.1466C16.4405 16.4513 15.7754 16.6666 15 16.6666C14.2246 16.6666 13.5596 16.4513 13.1119 16.1466C13.0258 16.088 12.9503 16.0283 12.8845 15.9682C13.5141 16.2404 14.2408 16.3888 15 16.3888Z" fill="#4B5563"/>
</svg>
