<svg width="32" height="32" viewBox="0 0 32 32" fill="none" xmlns="http://www.w3.org/2000/svg">
<path d="M7.79956 0.599609H16.4705C17.5731 0.599609 18.632 1.03401 19.4177 1.80762L27.1462 9.41699C27.948 10.2064 28.4001 11.285 28.4001 12.4102V27.2002C28.4 29.5196 26.5194 31.4003 24.2 31.4004H7.79956C5.48012 31.4003 3.59947 29.5196 3.59937 27.2002V4.7998C3.59947 2.48036 5.48012 0.599715 7.79956 0.599609Z" fill="white" stroke="#D1D1D1" stroke-width="1.2"/>
<path d="M18 1V7.8C18 9.56731 19.4327 11 21.2 11H28" stroke="#D1D1D1" stroke-width="1.2"/>
<path d="M0 17C0 15.3431 1.34315 14 3 14H22C23.6569 14 25 15.3431 25 17V25C25 26.6569 23.6569 28 22 28H3C1.34315 28 0 26.6569 0 25V17Z" fill="#FB3748"/>
<path d="M3.63125 24V17.6H7.73125V18.5719H4.79063V20.3094H7.45V21.2812H4.79063V24H3.63125ZM10.1229 17.6V24H8.9635V17.6H10.1229ZM11.5543 24V17.6H12.7137V23.0281H15.5325V24H11.5543ZM16.7147 24V17.6H20.8772V18.5719H17.8741V20.3094H20.6616V21.2812H17.8741V23.0281H20.9022V24H16.7147Z" fill="white"/>
</svg>
