<svg width="20" height="20" viewBox="0 0 20 20" fill="none" xmlns="http://www.w3.org/2000/svg">
<path d="M17.5503 9.85L17.417 9.66667C17.1837 9.38333 16.9087 9.15833 16.592 8.99167C16.167 8.75 15.6837 8.625 15.1837 8.625H4.80866C4.30866 8.625 3.83366 8.75 3.40033 8.99167C3.07533 9.16667 2.78366 9.40833 2.54199 9.70833C2.06699 10.3167 1.84199 11.0667 1.91699 11.8167L2.22533 15.7083C2.33366 16.8833 2.47533 18.3333 5.11699 18.3333H14.8837C17.5253 18.3333 17.6587 16.8833 17.7753 15.7L18.0837 11.825C18.1587 11.125 17.9753 10.425 17.5503 9.85ZM11.992 14.45H8.00033C7.67533 14.45 7.41699 14.1833 7.41699 13.8667C7.41699 13.55 7.67533 13.2833 8.00033 13.2833H11.992C12.317 13.2833 12.5753 13.55 12.5753 13.8667C12.5753 14.1917 12.317 14.45 11.992 14.45Z" fill="#001B0D"/>
<path d="M17.134 7.16377C17.1653 7.48282 16.8192 7.69643 16.5152 7.59465C16.0946 7.45383 15.6518 7.38341 15.1914 7.38341H4.80807C4.34404 7.38341 3.88716 7.45852 3.46086 7.6017C3.16053 7.70257 2.81641 7.49597 2.81641 7.17915V5.55008C2.81641 2.57508 3.72474 1.66675 6.69974 1.66675H7.68307C8.87474 1.66675 9.24974 2.05008 9.73307 2.67508L10.7331 4.00841C10.9414 4.29175 10.9497 4.30841 11.3164 4.30841H13.2997C15.9045 4.30841 16.9223 5.00612 17.134 7.16377Z" fill="#001B0D"/>
</svg>
