<svg width="40" height="40" viewBox="0 0 40 40" fill="none" xmlns="http://www.w3.org/2000/svg">
<rect width="40" height="40" rx="20" fill="#FBAE99"/>
<path d="M19.9993 28.3327C15.397 28.3327 11.666 24.6017 11.666 19.9993C11.666 15.397 15.397 11.666 19.9993 11.666C24.6017 11.666 28.3327 15.397 28.3327 19.9993C28.3327 24.6017 24.6017 28.3327 19.9993 28.3327ZM19.9993 26.666C23.6813 26.666 26.666 23.6813 26.666 19.9993C26.666 16.3174 23.6813 13.3327 19.9993 13.3327C16.3174 13.3327 13.3327 16.3174 13.3327 19.9993C13.3327 23.6813 16.3174 26.666 19.9993 26.666ZM20.8327 19.9993H24.166V21.666H19.166V15.8327H20.8327V19.9993Z" fill="#101828"/>
</svg>
