<svg width="41" height="40" viewBox="0 0 41 40" fill="none" xmlns="http://www.w3.org/2000/svg">
<rect x="0.333313" width="40" height="40" rx="20" fill="#11AB03"/>
<path d="M22 12.5V15.8333C22 16.0543 22.0878 16.2663 22.2441 16.4226C22.4004 16.5789 22.6123 16.6667 22.8333 16.6667H26.1667M22 12.5H16.1667C15.7246 12.5 15.3007 12.6756 14.9882 12.9882C14.6756 13.3007 14.5 13.7246 14.5 14.1667V25.8333C14.5 26.2754 14.6756 26.6993 14.9882 27.0118C15.3007 27.3244 15.7246 27.5 16.1667 27.5H24.5C24.942 27.5 25.366 27.3244 25.6785 27.0118C25.9911 26.6993 26.1667 26.2754 26.1667 25.8333V16.6667M22 12.5L26.1667 16.6667M17.8333 17.5H18.6667M17.8333 20.8333H22.8333M17.8333 24.1667H22.8333" stroke="black" stroke-width="1.66667" stroke-linecap="round" stroke-linejoin="round"/>
</svg>
