<svg width="41" height="40" viewBox="0 0 41 40" fill="none" xmlns="http://www.w3.org/2000/svg">
<rect x="0.666626" width="40" height="40" rx="20" fill="#20D3FA"/>
<path d="M27.3333 28.3327H14C13.5397 28.3327 13.1666 27.9596 13.1666 27.4993V12.4993C13.1666 12.0391 13.5397 11.666 14 11.666H27.3333C27.7935 11.666 28.1666 12.0391 28.1666 12.4993V27.4993C28.1666 27.9596 27.7935 28.3327 27.3333 28.3327ZM26.5 26.666V13.3327H14.8333V26.666H26.5ZM17.3333 15.8327H24V17.4993H17.3333V15.8327ZM17.3333 19.166H24V20.8327H17.3333V19.166ZM17.3333 22.4993H24V24.166H17.3333V22.4993Z" fill="black"/>
</svg>
